<svg xmlns="http://www.w3.org/2000/svg" viewBox="0 0 40.71 40.75"><defs><style>.cls-1{fill:none;stroke:#512e8c;stroke-miterlimit:10;stroke-width:0.75px;}.cls-2{fill:#512e8c;}</style></defs><title>newAsset 33</title><g id="Layer_2" data-name="Layer 2"><g id="Layer_2-2" data-name="Layer 2"><path class="cls-1" d="M35.15,33.78A20,20,0,1,0,.38,21a20,20,0,0,0,30,16.67l6,2.68a.59.59,0,0,0,.8-.74Z"/><path class="cls-2" d="M7.66,16.41h6.25v1.34H9.14V20h4.23v1.35H9.14v3.42H7.66Z"/><path class="cls-2" d="M18.51,16.35h1.37l3.69,8.46H22l-.85-2h-4l-.87,2H14.81Zm2.11,5.12-1.45-3.36-1.44,3.36Z"/><path class="cls-2" d="M32.58,25.06l-1-.9a4.63,4.63,0,0,1-1.18.58A4.34,4.34,0,0,1,29,25a4.48,4.48,0,0,1-1.78-.34A4.19,4.19,0,0,1,25,22.31a4.52,4.52,0,0,1-.32-1.68v0A4.52,4.52,0,0,1,25,18.93a4.28,4.28,0,0,1,.92-1.38,4.37,4.37,0,0,1,1.39-.94A4.44,4.44,0,0,1,29,16.26a4.49,4.49,0,0,1,1.78.35,3.91,3.91,0,0,1,1.38.93,4.4,4.4,0,0,1,.9,1.37,4.25,4.25,0,0,1,.32,1.67v0A4.14,4.14,0,0,1,33.2,22a4.5,4.5,0,0,1-.63,1.21l1,.81ZM29,23.58a2.78,2.78,0,0,0,.78-.1,3.14,3.14,0,0,0,.68-.28L29,22,30,20.88l1.48,1.35a3.2,3.2,0,0,0,.41-1.6v0a3.22,3.22,0,0,0-.21-1.16,3,3,0,0,0-.59-1,2.82,2.82,0,0,0-.91-.64A2.72,2.72,0,0,0,29,17.61a2.88,2.88,0,0,0-1.15.23,2.85,2.85,0,0,0-.89.64,2.91,2.91,0,0,0-.58.94,3.19,3.19,0,0,0-.21,1.16v0a3.19,3.19,0,0,0,.21,1.16,2.92,2.92,0,0,0,.59.95,2.78,2.78,0,0,0,.9.64A2.75,2.75,0,0,0,29,23.58Z"/></g></g></svg>
